<svg id="a12d4b9e-e462-40bd-9dea-620339eeeea7" data-name="Layer 1" xmlns="http://www.w3.org/2000/svg" viewBox="0 0 890.7 1024"><g id="aa863f49-2bfa-434f-920d-5eff069468b3" data-name="Regular-S"><path d="M471.3,898.4a21.1,21.1,0,0,1,3.4-1.6l3.3-1.6L750.2,739a132.07,132.07,0,0,0,39.9-34.5q14.4-19.35,14.4-61.8V372.6a131.32,131.32,0,0,0-.6-15.4,71.73,71.73,0,0,0-2.5-13.7L471.2,534.2Zm-52,0V533.8L89.3,343.3A71.73,71.73,0,0,0,86.8,357c0,4.9-.6,10.1-.6,15.4v270q0,42.45,14.4,61.8a134.7,134.7,0,0,0,39.9,34.5L412.7,894.8l3.3,1.7a17.74,17.74,0,0,1,3.3,1.9Zm25.9-410.3,148.4-84.8L262.4,211.4,135.5,284a102.78,102.78,0,0,0-21.1,14.8ZM646.5,373.6l129.3-74.7a102.78,102.78,0,0,0-21.1-14.8L515.3,146.4a141,141,0,0,0-70-20.7,138.59,138.59,0,0,0-70,20.6l-62.2,35.9Z" style="fill:#fff"/></g></svg>