<?xml version="1.0" encoding="utf-8"?>
<!-- Generator: Adobe Illustrator 26.0.3, SVG Export Plug-In . SVG Version: 6.00 Build 0)  -->
<svg version="1.1" id="Layer_1" xmlns="http://www.w3.org/2000/svg" xmlns:xlink="http://www.w3.org/1999/xlink" x="0px" y="0px"
	 viewBox="0 0 890.7 1024" style="enable-background:new 0 0 890.7 1024;" xml:space="preserve">
<g id="Regular-S">
	<path d="M471.3,898.4c1.1-0.6,2.2-1.2,3.4-1.6l3.3-1.6L750.2,739c15.5-8.7,29-20.4,39.9-34.5c9.6-12.9,14.4-33.5,14.4-61.8V372.6
		c0.1-5.2-0.1-10.3-0.6-15.4c-0.4-4.6-1.2-9.2-2.5-13.7L471.2,534.2L471.3,898.4z M419.3,898.4V533.8l-330-190.5
		c-1.3,4.5-2.1,9.1-2.5,13.7c0,4.9-0.6,10.1-0.6,15.4v270c0,28.3,4.8,48.9,14.4,61.8c10.9,14,24.5,25.8,39.9,34.5l272.2,156.1
		l3.3,1.7C417.2,897,418.3,897.7,419.3,898.4L419.3,898.4z M445.2,488.1l148.4-84.8L262.4,211.4L135.5,284c-7.6,4-14.7,9-21.1,14.8
		L445.2,488.1z M646.5,373.6l129.3-74.7c-6.4-5.8-13.5-10.8-21.1-14.8L515.3,146.4c-21.1-12.9-45.3-20.1-70-20.7
		c-24.8,0.5-48.9,7.6-70,20.6l-62.2,35.9L646.5,373.6z"/>
</g>
<path d="M445.3,1024c-2.5,0-5-0.7-7.2-1.9L7.2,773.3C2.7,770.7,0,766,0,760.8V263.2c0-5.1,2.7-9.9,7.2-12.4L438.2,2
	c4.4-2.6,9.9-2.6,14.4,0l431,248.8c4.4,2.6,7.2,7.3,7.2,12.4v497.6c0,5.1-2.7,9.9-7.2,12.4l-431,248.8
	C450.3,1023.3,447.9,1024,445.3,1024z M28.7,752.5L445.3,993l416.6-240.5v-481L445.3,31L28.7,271.5V752.5z M876.3,760.8L876.3,760.8
	z"/>
</svg>
